<?xml version="1.0" encoding="UTF-8"?>
<svg xmlns="http://www.w3.org/2000/svg" xmlns:xlink="http://www.w3.org/1999/xlink" width="20pt" height="20pt" viewBox="0 0 20 20" version="1.1">
<g id="surface1">
<path style=" stroke:none;fill-rule:nonzero;fill:rgb(100%,100%,100%);fill-opacity:1;" d="M 20 10 C 20 4.476562 15.523438 0 10 0 C 4.476562 0 0 4.476562 0 10 C 0 15.523438 4.476562 20 10 20 C 10.058594 20 10.117188 20 10.175781 19.996094 L 10.175781 12.214844 L 8.027344 12.214844 L 8.027344 9.710938 L 10.175781 9.710938 L 10.175781 7.867188 C 10.175781 5.730469 11.480469 4.566406 13.386719 4.566406 C 14.300781 4.566406 15.085938 4.632812 15.3125 4.664062 L 15.3125 6.898438 L 14 6.898438 C 12.964844 6.898438 12.761719 7.390625 12.761719 8.113281 L 12.761719 9.707031 L 15.242188 9.707031 L 14.917969 12.210938 L 12.761719 12.210938 L 12.761719 19.613281 C 16.941406 18.414062 20 14.566406 20 10 Z M 20 10 "/>
</g>
</svg>
