<?xml version="1.0" encoding="UTF-8"?>
<svg xmlns="http://www.w3.org/2000/svg" xmlns:xlink="http://www.w3.org/1999/xlink" width="20pt" height="20pt" viewBox="0 0 20 20" version="1.1">
<g id="surface1">
<path style=" stroke:none;fill-rule:nonzero;fill:rgb(100%,100%,100%);fill-opacity:1;" d="M 19.980469 5.878906 C 19.933594 4.816406 19.761719 4.085938 19.515625 3.453125 C 19.261719 2.78125 18.871094 2.179688 18.359375 1.679688 C 17.859375 1.171875 17.253906 0.777344 16.589844 0.527344 C 15.953125 0.28125 15.226562 0.109375 14.164062 0.0625 C 13.09375 0.0117188 12.753906 0 10.035156 0 C 7.320312 0 6.980469 0.0117188 5.914062 0.0585938 C 4.851562 0.105469 4.121094 0.277344 3.488281 0.523438 C 2.816406 0.777344 2.214844 1.167969 1.714844 1.679688 C 1.207031 2.179688 0.8125 2.785156 0.5625 3.449219 C 0.316406 4.085938 0.144531 4.8125 0.0976562 5.875 C 0.046875 6.945312 0.0351562 7.285156 0.0351562 10.003906 C 0.0351562 12.71875 0.046875 13.058594 0.09375 14.125 C 0.140625 15.1875 0.3125 15.917969 0.558594 16.550781 C 0.8125 17.222656 1.207031 17.824219 1.714844 18.324219 C 2.214844 18.832031 2.820312 19.226562 3.484375 19.476562 C 4.121094 19.722656 4.847656 19.894531 5.910156 19.941406 C 6.976562 19.988281 7.316406 20 10.035156 20 C 12.75 20 13.089844 19.988281 14.15625 19.941406 C 15.21875 19.894531 15.949219 19.722656 16.582031 19.476562 C 17.925781 18.957031 18.988281 17.894531 19.507812 16.550781 C 19.753906 15.914062 19.925781 15.1875 19.972656 14.125 C 20.019531 13.058594 20.03125 12.71875 20.03125 10.003906 C 20.03125 7.285156 20.027344 6.945312 19.980469 5.878906 Z M 18.179688 14.046875 C 18.136719 15.023438 17.972656 15.550781 17.835938 15.902344 C 17.5 16.773438 16.808594 17.464844 15.9375 17.800781 C 15.585938 17.9375 15.054688 18.101562 14.082031 18.144531 C 13.027344 18.191406 12.710938 18.203125 10.042969 18.203125 C 7.371094 18.203125 7.050781 18.191406 6 18.144531 C 5.023438 18.101562 4.496094 17.9375 4.144531 17.800781 C 3.710938 17.640625 3.316406 17.386719 2.996094 17.054688 C 2.664062 16.730469 2.410156 16.339844 2.25 15.90625 C 2.113281 15.554688 1.949219 15.023438 1.90625 14.050781 C 1.859375 12.996094 1.847656 12.679688 1.847656 10.007812 C 1.847656 7.339844 1.859375 7.019531 1.90625 5.96875 C 1.949219 4.992188 2.113281 4.464844 2.25 4.113281 C 2.410156 3.679688 2.664062 3.285156 3 2.964844 C 3.324219 2.632812 3.714844 2.378906 4.148438 2.21875 C 4.5 2.082031 5.03125 1.917969 6.003906 1.875 C 7.058594 1.828125 7.375 1.816406 10.042969 1.816406 C 12.71875 1.816406 13.035156 1.828125 14.085938 1.875 C 15.0625 1.917969 15.589844 2.082031 15.941406 2.21875 C 16.375 2.378906 16.769531 2.632812 17.089844 2.964844 C 17.421875 3.289062 17.675781 3.679688 17.835938 4.113281 C 17.972656 4.464844 18.136719 4.996094 18.179688 5.96875 C 18.226562 7.023438 18.238281 7.339844 18.238281 10.007812 C 18.238281 12.679688 18.226562 12.992188 18.179688 14.046875 Z M 18.179688 14.046875 "/>
<path style=" stroke:none;fill-rule:nonzero;fill:rgb(100%,100%,100%);fill-opacity:1;" d="M 10.035156 4.863281 C 7.199219 4.863281 4.898438 7.164062 4.898438 10.003906 C 4.898438 12.839844 7.199219 15.140625 10.035156 15.140625 C 12.875 15.140625 15.175781 12.839844 15.175781 10.003906 C 15.175781 7.164062 12.875 4.863281 10.035156 4.863281 Z M 10.035156 13.335938 C 8.195312 13.335938 6.703125 11.84375 6.703125 10.003906 C 6.703125 8.160156 8.195312 6.667969 10.035156 6.667969 C 11.878906 6.667969 13.371094 8.160156 13.371094 10.003906 C 13.371094 11.84375 11.878906 13.335938 10.035156 13.335938 Z M 10.035156 13.335938 "/>
<path style=" stroke:none;fill-rule:nonzero;fill:rgb(100%,100%,100%);fill-opacity:1;" d="M 16.578125 4.660156 C 16.578125 5.324219 16.039062 5.859375 15.378906 5.859375 C 14.714844 5.859375 14.179688 5.324219 14.179688 4.660156 C 14.179688 4 14.714844 3.460938 15.378906 3.460938 C 16.039062 3.460938 16.578125 4 16.578125 4.660156 Z M 16.578125 4.660156 "/>
</g>
</svg>
